<?xml version="1.0" encoding="UTF-8"?>
<svg width="2693px" height="1883px" viewBox="0 0 2693 1883" version="1.1" xmlns="http://www.w3.org/2000/svg" xmlns:xlink="http://www.w3.org/1999/xlink">
    <!-- Generator: Sketch 50.2 (55047) - http://www.bohemiancoding.com/sketch -->
    <title>Artboard Copy 3</title>
    <desc>Created with Sketch.</desc>
    <defs></defs>
    <g id="Artboard-Copy-3" stroke="none" stroke-width="1" fill="none" fill-rule="evenodd">
        <g id="Group-2" transform="translate(703.000000, 756.000000)">
            <g id="Group">
                <path d="M0,0 L140.511088,35.3984659 L140.511088,206.816234 L0,171.696496 L0,0 Z M140.511088,0 L281.022176,35.3984659 L281.022176,206.816234 L140.511088,171.696496 L140.511088,0 Z M281.022176,0 L421.256122,35.3984659 L421.256122,206.816234 L281.022176,171.696496 L281.022176,0 Z M421.256122,0.278728078 L561.490068,35.677194 L561.490068,206.816234 L421.256122,171.696496 L421.256122,0.278728078 Z M561.490068,0 L701.724014,35.3984659 L701.724014,206.816234 L561.490068,171.696496 L561.490068,0 Z M701.724014,0 L841.95796,35.3984659 L841.95796,206.816234 L701.724014,171.696496 L701.724014,0 Z M841.95796,0 L982.191906,35.3984659 L982.191906,206.816234 L841.95796,171.696496 L841.95796,0 Z M982.191906,0.278728078 L1122.42585,35.677194 L1122.42585,206.816234 L982.191906,171.696496 L982.191906,0.278728078 Z M1122.42585,0 L1262.6598,35.3984659 L1262.6598,206.816234 L1122.42585,171.696496 L1122.42585,0 Z" id="dremeteme" fill="#000000"></path>
                <path d="M16.351389,21.462062 L63.4655605,33.4473694 C82.8655135,38.4644748 98.1083337,48.4986856 108.639737,63.2712737 C118.616855,77.7651338 123.882557,96.161187 123.882557,117.901977 C123.882557,139.085311 118.339713,154.694083 108.362595,163.613382 C98.3854759,172.811408 83.1426557,175.041233 64.2969871,170.302856 L16.351389,158.317548 L16.351389,21.462062 Z M53.4884418,64.9436422 L53.4884418,133.510749 L62.3569918,136.019302 C63.4655605,136.29803 68.1769777,136.855486 68.1769777,136.855486 C72.8883948,136.855486 76.7683854,134.625662 79.5398073,130.723469 C83.1426557,125.706363 85.082651,117.623249 85.082651,106.474126 C85.082651,95.6037308 82.8655135,86.6844323 79.2626651,79.9949584 C75.6598167,73.3054845 70.3941152,69.4032915 63.4655605,67.730923 L53.4884418,64.9436422 Z" id="Combined-Shape" fill="#FFFFFF"></path>
                <path d="M237.787995,129.608556 L261.067939,184.517988 L219.773753,173.926321 L202.590938,130.723469 L195.662383,129.0511 L195.662383,167.794303 L158.802472,158.875005 L158.802472,22.0195182 L208.410924,34.5622817 C223.376602,38.4644748 235.293716,45.7114048 244.439408,56.3030718 C253.307958,67.1734668 258.296517,80.2736865 258.296517,94.7675466 C258.296517,102.850661 256.07938,110.097591 252.476531,116.229609 C249.150825,121.525442 244.993692,125.427635 239.727991,128.493644 L237.787995,129.608556 Z M195.662383,64.6649141 L195.662383,96.439915 L202.313796,98.1122835 C204.530933,98.6697397 206.748071,99.2271958 208.688066,99.2271958 C213.399483,99.2271958 219.219469,96.7186431 219.496611,86.1269761 C219.496611,81.946055 218.388042,77.7651338 215.893763,74.4203969 C213.122341,70.5182038 208.965208,68.2883791 203.422364,66.8947388 L195.662383,64.6649141 Z" id="Combined-Shape" fill="#FFFFFF"></path>
                <polygon id="Path" fill="#FFFFFF" points="348.922012 69.1245634 389.661913 79.4375023 389.661913 44.8752206 312.062101 25.3642551 312.062101 161.941013 390.49334 181.730707 390.49334 147.447153 348.922012 136.855486 348.922012 119.574346 387.99906 129.329828 387.99906 96.161187 348.922012 86.4057042"></polygon>
                <polygon id="Path" fill="#FFFFFF" points="504.398778 175.041233 513.54447 120.689258 518.255887 121.246714 518.255887 178.664698 545.138679 185.354172 545.138679 48.7774137 503.844494 38.7432029 491.373095 110.933775 480.841692 32.6111851 437.884653 21.7407901 437.884653 158.317548 464.490303 165.007022 464.490303 108.70395 469.20172 108.425222 478.624555 168.351759"></polygon>
                <polygon id="Path" fill="#FFFFFF" points="629.389904 69.1245634 670.129805 79.4375023 670.129805 44.8752206 592.529993 25.3642551 592.529993 161.941013 670.961232 181.730707 670.961232 147.447153 629.389904 136.855486 629.389904 119.574346 668.466952 129.329828 668.466952 96.161187 629.389904 86.4057042"></polygon>
                <polygon id="Path" fill="#FFFFFF" points="727.221095 23.9706147 727.221095 58.2541683 752.718176 64.6649141 752.718176 166.958119 789.300945 176.156145 789.300945 74.1416688 816.738021 81.1098707 816.738021 46.268861"></polygon>
                <polygon id="Path" fill="#FFFFFF" points="909.857796 69.1245634 950.597697 79.4375023 950.597697 44.8752206 872.997885 25.3642551 872.997885 161.941013 951.429123 181.730707 951.429123 147.447153 909.857796 136.855486 909.857796 119.574346 948.934844 129.329828 948.934844 96.161187 909.857796 86.4057042"></polygon>
                <polygon id="Path" fill="#FFFFFF" points="1065.33456 175.041233 1074.48025 120.689258 1079.19167 121.246714 1079.19167 178.664698 1106.07446 185.354172 1106.07446 48.7774137 1064.78028 38.7432029 1052.30888 110.933775 1041.77748 32.6111851 998.820437 21.7407901 998.820437 158.317548 1025.42609 165.007022 1025.42609 108.70395 1030.1375 108.425222 1039.56034 168.351759"></polygon>
                <polygon id="Path" fill="#FFFFFF" points="1190.32569 69.1245634 1231.06559 79.4375023 1231.06559 44.8752206 1153.46578 25.3642551 1153.46578 161.941013 1231.89702 181.730707 1231.89702 147.447153 1190.32569 136.855486 1190.32569 119.574346 1229.40274 129.329828 1229.40274 96.161187 1190.32569 86.4057042"></polygon>
            </g>
        </g>
    </g>
</svg>