<?xml version="1.0" encoding="UTF-8"?>
<svg width="3169px" height="1883px" viewBox="0 0 3169 1883" version="1.1" xmlns="http://www.w3.org/2000/svg" xmlns:xlink="http://www.w3.org/1999/xlink">
    <!-- Generator: Sketch 50.2 (55047) - http://www.bohemiancoding.com/sketch -->
    <title>Artboard Copy 3</title>
    <desc>Created with Sketch.</desc>
    <defs></defs>
    <g id="Artboard-Copy-3" stroke="none" stroke-width="1" fill="none" fill-rule="evenodd">
        <g id="Group-2" transform="translate(703.000000, 756.000000)">
            <g id="Group">
                <path d="M0,0 L196.137014,49.2500395 L196.137014,287.744326 L0,238.882082 L0,0 Z M196.137014,0 L392.274028,49.2500395 L392.274028,287.744326 L196.137014,238.882082 L196.137014,0 Z M392.274028,0 L588.024183,49.2500395 L588.024183,287.744326 L392.274028,238.882082 L392.274028,0 Z M588.024183,0.387795587 L783.774339,49.6378351 L783.774339,287.744326 L588.024183,238.882082 L588.024183,0.387795587 Z M783.774339,0 L979.524495,49.2500395 L979.524495,287.744326 L783.774339,238.882082 L783.774339,0 Z M979.524495,0 L1175.27465,49.2500395 L1175.27465,287.744326 L979.524495,238.882082 L979.524495,0 Z M1175.27465,0 L1371.02481,49.2500395 L1371.02481,287.744326 L1175.27465,238.882082 L1175.27465,0 Z M1371.02481,0.387795587 L1566.77496,49.6378351 L1566.77496,287.744326 L1371.02481,238.882082 L1371.02481,0.387795587 Z M1566.77496,0 L1762.52512,49.2500395 L1762.52512,287.744326 L1566.77496,238.882082 L1566.77496,0 Z" id="dremeteme" fill="#000000"></path>
                <path d="M22.8246229,29.8602602 L88.5904855,46.5354704 C115.670547,53.515791 136.947737,67.4764321 151.648342,88.0295982 C165.575231,108.194969 172.925533,133.789478 172.925533,164.037533 C172.925533,193.509998 165.188373,215.226551 151.261484,227.63601 C137.334595,240.433264 116.057405,243.535629 89.7510596,236.943104 L22.8246229,220.267893 L22.8246229,29.8602602 Z M74.663597,90.3563718 L74.663597,185.754086 L87.0430534,189.244246 C88.5904855,189.632042 95.1670718,190.407633 95.1670718,190.407633 C101.743658,190.407633 107.15967,187.305269 111.02825,181.87613 C116.057405,174.89581 118.765411,163.649738 118.765411,148.137914 C118.765411,133.013886 115.670547,120.604428 110.641392,111.297333 C105.612238,101.990239 98.2619359,96.5611012 88.5904855,94.2343276 L74.663597,90.3563718 Z" id="Combined-Shape" fill="#FFFFFF"></path>
                <path d="M331.924177,180.324948 L364.42025,256.720679 L306.778406,241.984446 L282.793209,181.87613 L273.121759,179.549357 L273.121759,233.452943 L221.669643,221.043485 L221.669643,30.6358514 L290.917228,48.0866528 C311.80756,53.515791 328.442455,63.5984763 341.20877,78.3347086 C353.588226,93.4587365 360.55167,111.685129 360.55167,131.8505 C360.55167,143.096572 357.456806,153.179257 352.427652,161.71076 C347.785356,169.078876 341.982486,174.508014 334.632183,178.773766 L331.924177,180.324948 Z M273.121759,89.9685762 L273.121759,134.177273 L282.406351,136.504047 C285.501215,137.279638 288.596079,138.055229 291.304086,138.055229 C297.880672,138.055229 306.00469,134.565069 306.391548,119.828836 C306.391548,114.011903 304.844116,108.194969 301.362394,103.541422 C297.493814,98.1122835 291.690944,95.0099188 283.953783,93.0709409 L273.121759,89.9685762 Z" id="Combined-Shape" fill="#FFFFFF"></path>
                <polygon id="Path" fill="#FFFFFF" points="487.054241 96.1733056 543.92237 110.521742 543.92237 62.4350895 435.602125 35.2893984 435.602125 225.309236 545.082944 252.842723 545.082944 205.143866 487.054241 190.407633 487.054241 166.364307 541.601221 179.937152 541.601221 133.789478 487.054241 120.216632"></polygon>
                <polygon id="Path" fill="#FFFFFF" points="704.081588 243.535629 716.847902 167.915489 723.424489 168.69108 723.424489 248.576971 760.949716 257.884065 760.949716 67.8642277 703.307872 53.9035866 685.899261 154.342644 671.198657 45.3720837 611.235664 30.2480558 611.235664 220.267893 648.374034 229.574987 648.374034 151.240279 654.95062 150.852483 668.103792 234.228535"></polygon>
                <polygon id="Path" fill="#FFFFFF" points="878.554553 96.1733056 935.422681 110.521742 935.422681 62.4350895 827.102437 35.2893984 827.102437 225.309236 936.583255 252.842723 936.583255 205.143866 878.554553 190.407633 878.554553 166.364307 933.101533 179.937152 933.101533 133.789478 878.554553 120.216632"></polygon>
                <polygon id="Path" fill="#FFFFFF" points="1015.11543 33.3504205 1015.11543 81.0492777 1050.70637 89.9685762 1050.70637 232.289557 1101.77163 245.086811 1101.77163 103.153626 1140.07057 112.848516 1140.07057 64.3740674"></polygon>
                <polygon id="Path" fill="#FFFFFF" points="1270.05486 96.1733056 1326.92299 110.521742 1326.92299 62.4350895 1218.60275 35.2893984 1218.60275 225.309236 1328.08357 252.842723 1328.08357 205.143866 1270.05486 190.407633 1270.05486 166.364307 1324.60184 179.937152 1324.60184 133.789478 1270.05486 120.216632"></polygon>
                <polygon id="Path" fill="#FFFFFF" points="1487.08221 243.535629 1499.84853 167.915489 1506.42511 168.69108 1506.42511 248.576971 1543.95034 257.884065 1543.95034 67.8642277 1486.30849 53.9035866 1468.89988 154.342644 1454.19928 45.3720837 1394.23629 30.2480558 1394.23629 220.267893 1431.37466 229.574987 1431.37466 151.240279 1437.95124 150.852483 1451.10442 234.228535"></polygon>
                <polygon id="Path" fill="#FFFFFF" points="1661.55518 96.1733056 1718.4233 110.521742 1718.4233 62.4350895 1610.10306 35.2893984 1610.10306 225.309236 1719.58388 252.842723 1719.58388 205.143866 1661.55518 190.407633 1661.55518 166.364307 1716.10216 179.937152 1716.10216 133.789478 1661.55518 120.216632"></polygon>
            </g>
        </g>
    </g>
</svg>